<svg width="24" height="24" viewBox="0 0 24 24" fill="none" xmlns="http://www.w3.org/2000/svg">
<rect width="24" height="24" fill="white"/>
<path d="M13.5585 22L24 4.2265C23.3242 4.2265 22.6485 4.2265 21.9509 4.2265C18.4632 10.1302 14.9536 16.0131 11.4441 21.8961C12.1634 21.9377 12.8828 21.9584 13.5585 22Z" fill="#54F1D4"/>
<path d="M6.16895 13.082L11.4659 21.9168L16.763 13.082L22.06 4.24725H21.9946C20.5777 4.24725 19.2698 4.97482 18.5722 6.15972V6.15972L15.891 10.5875V10.5875L14.9755 12.0842L11.3788 18.0711L7.80382 12.0842L6.16895 13.082Z" fill="#20BFBE"/>
<path d="M6.95368 10.837L3.35695 4.85011H10.5286H12.3161L11.2044 3H10.594H0L5.297 11.8348L6.95368 10.837Z" fill="#212121"/>
</svg>
